<svg width="21" height="24" viewBox="0 0 21 24" fill="none" xmlns="http://www.w3.org/2000/svg">

<path d="M3.3375 24.0002H0.5625C0.2625 24.0002 0 23.7377 0 23.4002V5.3252C0 5.0252 0.2625 4.7627 0.5625 4.7627H3.3C3.6 4.7627 3.8625 5.0252 3.8625 5.3252V23.4002C3.9 23.7377 3.6375 24.0002 3.3375 24.0002Z" fill="#4BA8A6"/>
<path d="M8.7375 23.9999H6C5.7 23.9999 5.4375 23.7374 5.4375 23.4374V8.9624C5.4375 8.6624 5.7 8.3999 6 8.3999H8.7375C9.0375 8.3999 9.3 8.6624 9.3 8.9624V23.4374C9.3 23.7374 9.0375 23.9999 8.7375 23.9999Z" fill="#4BA8A6"/>
<path d="M14.1375 24.0002H11.4C11.1 24.0002 10.8375 23.7377 10.8375 23.4377V11.5127C10.8375 11.2127 11.1 10.9502 11.4 10.9502H14.1375C14.4375 10.9502 14.7 11.2127 14.7 11.5127V23.4002C14.7 23.7377 14.4375 24.0002 14.1375 24.0002Z" fill="#4BA8A6"/>
<path d="M19.5375 24H16.8C16.5 24 16.2375 23.7375 16.2375 23.4375V0.5625C16.2375 0.2625 16.5 0 16.8 0H19.5375C19.8375 0 20.1 0.2625 20.1 0.5625V23.4C20.1 23.7375 19.8375 24 19.5375 24Z" fill="#4BA8A6"/>

</svg>
