<svg width="22" height="24" viewBox="0 0 22 24" fill="none" xmlns="http://www.w3.org/2000/svg">
<path d="M20.9994 12.2968L14.4695 18.5497C14.2716 18.7476 13.955 18.5497 13.955 18.2331V15.1858C13.955 14.9484 13.7967 14.7901 13.6384 14.7901H6.67317C6.47529 14.7901 6.35657 14.5922 6.35657 14.3943V12.0198V9.64529C6.35657 9.40784 6.51487 9.24954 6.67317 9.24954H13.5988C13.7967 9.24954 13.9154 9.05166 13.9154 8.85378V5.76692C13.9154 5.45032 14.232 5.25244 14.4299 5.45032L20.9598 11.6636C21.1577 11.8219 21.1577 12.1385 20.9994 12.2968Z" fill="#4BA8A6"/>
<rect width="3.72351" height="24" rx="0.5" transform="matrix(-1 0 0 1 3.73279 0)" fill="#4BA8A6"/>
</svg>
