<svg width="25" height="24" viewBox="0 0 25 24" fill="none" xmlns="http://www.w3.org/2000/svg">

<path d="M0.494385 13.9673V20.6165C0.494385 22.0329 5.01898 24.0001 12.4157 24.0001C19.8124 24.0001 24.337 22.0329 24.337 20.6165V13.9673C22.1337 15.6591 17.1764 16.5247 12.4157 16.5247C7.65504 16.5247 2.69766 15.6591 0.494385 13.9673Z" fill="#4BA8A6"/>
<path d="M0.494385 5.35107V12.0003C0.494385 13.4166 5.01898 15.3445 12.4157 15.3445C19.8124 15.3445 24.337 13.3773 24.337 12.0003V5.35107C22.1337 7.04288 17.1764 7.90845 12.4157 7.90845C7.65504 7.90845 2.69766 7.00353 0.494385 5.35107Z" fill="#4BA8A6"/>
<path d="M12.4157 0C6.04193 0 1.7534 1.45574 0.73045 2.7541C0.573073 2.99016 0.494385 3.18689 0.494385 3.34426C0.494385 3.54098 0.573073 3.7377 0.73045 3.93443C1.7534 5.23279 6.04193 6.68852 12.4157 6.68852C18.7895 6.68852 23.078 5.23279 24.1009 3.93443C24.2583 3.7377 24.337 3.54098 24.337 3.34426C24.337 3.14754 24.2583 2.95082 24.1009 2.7541C23.078 1.45574 18.8288 0 12.4157 0Z" fill="#4BA8A6"/>

</svg>
