<svg width="29" height="24" viewBox="0 0 29 24" fill="none" xmlns="http://www.w3.org/2000/svg">

<path d="M22.5531 11.7746C21.8406 11.7746 21.1656 11.6246 20.6031 11.2871C20.3031 11.0996 20.1531 11.1746 19.9656 11.3996C15.9906 15.3371 12.0156 19.3121 8.0781 23.2871C7.4781 23.8871 6.7656 24.1121 5.9406 23.8121C5.1531 23.5121 4.7031 22.9496 4.6281 22.1246C4.5531 21.4871 4.7781 20.9621 5.2281 20.5121C7.2906 18.4496 9.3156 16.4246 11.3781 14.3621C13.3281 12.4121 15.2781 10.4621 17.2281 8.54963C17.4156 8.36213 17.4156 8.24963 17.3031 8.02462C16.4031 6.37463 16.6656 4.42462 17.9781 3.07463C18.5781 2.47462 19.1781 1.87463 19.7781 1.27463C21.0906 0.0371251 23.0781 -0.225375 24.6531 0.674625C24.8781 0.824625 24.9156 0.862125 24.7281 1.08713C23.6406 2.17463 22.5531 3.26213 21.4281 4.34963C21.2406 4.53713 21.2406 4.64962 21.4281 4.83712C22.2531 5.62462 23.0406 6.41213 23.8281 7.23712C24.0156 7.42462 24.0906 7.42462 24.2781 7.23712C25.3281 6.14962 26.4156 5.09962 27.5031 4.01212C27.8406 3.67462 27.8406 3.67462 28.0281 4.12462C28.8531 5.66212 28.5531 7.64963 27.3531 8.88713C26.7531 9.52463 26.1156 10.1246 25.5156 10.7246C24.6906 11.3996 23.6406 11.7746 22.5531 11.7746Z" fill="#4BA8A6"/>
<path d="M4.14078 13.7241C3.91578 13.7241 3.72828 13.6491 3.57828 13.4616C2.60328 12.4866 1.62828 11.5116 0.653283 10.5366C0.315783 10.1991 0.315783 9.78656 0.615783 9.44906C0.990783 9.03656 1.36578 8.66156 1.77828 8.28656C2.07828 7.98656 2.41578 7.98656 2.79078 8.21156C3.09078 8.39906 3.12828 8.06156 3.27828 7.98656C3.42828 7.87406 3.35328 7.79906 3.24078 7.68656C2.79078 7.19906 2.79078 7.19906 3.24078 6.74906C5.07828 4.91156 6.91578 3.07406 8.71578 1.23656C8.94078 1.01156 9.05328 0.936565 9.24078 1.23656C9.35328 1.42406 9.50328 1.38656 9.69078 1.27406C10.6283 0.636565 11.6408 0.111565 12.8033 -0.000935243C13.4783 -0.0759352 14.1158 0.0740648 14.6033 0.599065C14.7908 0.786565 14.8283 0.899065 14.6033 1.08656C13.7408 1.91156 12.9158 2.77407 12.0533 3.59906C11.8658 3.78656 11.8658 3.89906 12.0533 4.04906C12.3533 4.31156 12.5783 4.61156 12.8783 4.87406C13.0283 5.02407 12.9908 5.09906 12.8783 5.21156C12.3533 5.73656 11.8283 6.26156 11.3033 6.78656C11.1158 6.97406 11.0783 7.08656 11.3033 7.27406C12.1658 8.09906 12.9908 8.96157 13.8533 9.78656C14.0408 9.97406 14.0408 10.0866 13.8533 10.2366C13.1783 10.8741 12.5033 11.5491 11.8658 12.2241C11.6408 12.4491 11.5283 12.4491 11.3033 12.2241C10.4783 11.3616 9.61578 10.5366 8.79078 9.71156C8.60328 9.52406 8.49078 9.52406 8.34078 9.71156C7.92828 10.1616 7.44078 10.5741 7.02828 11.0241C6.87828 11.2116 6.76578 11.2116 6.61578 11.0241C6.57828 10.9491 6.50328 10.9116 6.42828 10.8366C6.31578 10.7616 6.24078 10.4991 6.05328 10.7616C5.94078 10.9116 5.60328 10.9866 5.90328 11.3241C6.16578 11.6241 6.05328 11.9616 5.82828 12.2616C5.45328 12.6741 5.04078 13.0491 4.62828 13.4616C4.55328 13.6491 4.36578 13.7241 4.14078 13.7241Z" fill="#4BA8A6"/>
<path d="M25.5531 20.0996C25.5531 20.3246 25.4406 20.4746 25.3281 20.5871C24.2781 21.6371 23.2281 22.6871 22.1406 23.7371C21.8031 24.0746 21.5781 24.0371 21.2781 23.7371C19.3656 21.7496 17.4906 19.7246 15.5781 17.6996C15.3906 17.5121 15.3906 17.3996 15.5781 17.2121C16.6281 16.1621 17.7156 15.1121 18.7656 14.0621C18.9156 13.8746 19.0281 13.8371 19.2531 14.0246C21.2781 15.9371 23.3031 17.8121 25.3281 19.7246C25.4031 19.8371 25.5531 19.9496 25.5531 20.0996Z" fill="#4BA8A6"/>

</svg>
