<svg width="22" height="24" viewBox="0 0 22 24" fill="none" xmlns="http://www.w3.org/2000/svg">

<path d="M14.6522 12.2968L8.12231 18.5497C7.92443 18.7476 7.60783 18.5497 7.60783 18.2331V15.1858C7.60783 14.9484 7.44953 14.7901 7.29123 14.7901H0.326001C0.128125 14.7901 0.00939941 14.5922 0.00939941 14.3943V12.0198V9.64529C0.00939941 9.40784 0.1677 9.24954 0.326001 9.24954H7.25166C7.44953 9.24954 7.56826 9.05166 7.56826 8.85378V5.76692C7.56826 5.45032 7.88486 5.25244 8.08273 5.45032L14.6126 11.6636C14.8105 11.8219 14.8105 12.1385 14.6522 12.2968Z" fill="#4BA8A6"/>
<rect x="17.3901" width="3.72351" height="24" rx="0.5" fill="#4BA8A6"/>

</svg>
