<svg width="35" height="35" viewBox="0 0 35 35" fill="none" xmlns="http://www.w3.org/2000/svg">
<path d="M0.822113 12.196C1.36899 10.5007 2.1893 8.86009 3.22836 7.38353C8.80649 -0.491472 19.744 -2.35085 27.619 3.22728C28.8768 4.10228 30.0252 5.14134 31.0096 6.34447C35.7674 12.0867 36.369 20.1804 32.4862 26.5788C31.8846 27.5632 31.2284 28.4382 30.4627 29.3132C30.4627 29.3679 30.408 29.4226 30.3534 29.4773L30.244 29.5867C30.1893 29.6413 30.1346 29.696 30.0799 29.696C28.5487 31.282 26.744 32.5945 24.7205 33.5242C21.3299 35.0007 17.5565 35.4382 13.9471 34.6726C10.5018 33.9617 7.32993 32.2117 4.86899 29.6413C4.8143 29.5867 4.75961 29.5867 4.70493 29.532C4.70493 29.4773 4.65024 29.4773 4.65024 29.4226C4.59555 29.3679 4.54086 29.3132 4.54086 29.2585C2.24399 26.7429 0.712742 23.571 0.220554 20.2351C0.0564919 19.3054 0.00180435 18.4304 0.00180435 17.5007C0.00180435 15.696 0.275238 13.8913 0.822113 12.196ZM5.74399 28.9304C7.4393 30.6804 9.51743 32.0476 11.8143 32.9226C15.0956 34.1257 18.6502 34.2351 21.9862 33.3054C23.6268 32.8679 25.158 32.157 26.5252 31.2273C27.5096 30.571 28.4393 29.8054 29.2596 28.9851L29.2049 28.9304L29.0955 28.821C29.0955 28.821 29.0955 28.7663 29.0409 28.7663L28.9862 28.7117C28.8768 28.6023 28.7674 28.4382 28.658 28.3288C28.3299 28.0007 28.0565 27.7273 27.6737 27.3992L27.4002 27.1804H27.3455L27.1268 27.0163C26.8534 26.8523 26.6346 26.6335 26.3612 26.4695C24.9393 25.5945 23.408 24.8288 21.8221 24.282C21.4393 24.1726 21.1112 23.9538 20.8377 23.6804C20.4002 23.2976 20.1268 22.7507 20.0721 22.1492C20.0174 21.2742 20.619 20.6179 21.0565 19.907C21.494 19.2507 21.9315 18.5398 22.2596 17.8288C22.6424 17.0632 22.9159 16.2429 23.1893 15.4773C23.4627 14.657 23.6268 13.782 23.6268 12.907V12.0867C23.5721 11.7585 23.5174 11.4304 23.408 11.1023C23.3534 10.9382 23.2987 10.7195 23.244 10.5554L23.1346 10.282L23.0799 10.1179C22.9159 9.6804 22.6971 9.29759 22.4237 8.96947L22.3143 8.86009C22.2596 8.75072 22.1502 8.69603 22.0955 8.58665C21.9315 8.3679 21.7674 8.20384 21.5487 8.03978L21.4393 7.9304L21.3846 7.87572L21.0565 7.65697C20.8377 7.4929 20.619 7.38353 20.3456 7.27415H20.2909L20.1815 7.21947L19.9627 7.16478L19.5252 7.00072C19.3612 6.94603 19.2518 6.94603 19.0877 6.89134L18.8143 6.83665H18.6502C17.9393 6.72728 17.2284 6.72728 16.4627 6.83665H16.0799L15.8612 6.89134C15.6971 6.94603 15.5331 6.94603 15.369 7.00072C15.2049 7.0554 15.0956 7.11009 14.9315 7.11009L14.7127 7.16478L14.6034 7.21947H14.5487C14.2752 7.32884 14.0565 7.43822 13.8377 7.60228L13.5096 7.82103L13.4002 7.9304C13.3456 7.9304 13.3456 7.98509 13.2909 8.03978C13.1268 8.20384 12.9081 8.3679 12.744 8.58665C12.6893 8.69603 12.5799 8.75072 12.5252 8.86009L12.4706 8.91478L12.4159 9.02415C12.1424 9.35228 11.9237 9.73509 11.7596 10.1726L11.7049 10.282L11.6502 10.3367C11.5956 10.446 11.5956 10.5554 11.5409 10.6101C11.4862 10.7742 11.4315 10.9929 11.3768 11.157C11.2674 11.4851 11.2127 11.7585 11.1581 12.0867V12.6335C11.1034 13.6179 11.2674 14.6023 11.5956 15.5867C12.0331 16.407 12.2518 17.1726 12.5799 17.9382C12.9081 18.7038 13.3456 19.4148 13.8377 20.071C14.3299 20.7273 14.8221 21.3835 14.7674 22.2585C14.7127 22.8054 14.4393 23.3523 14.0565 23.7351C13.7284 24.0085 13.4002 24.1726 13.0174 24.3367C12.1424 24.6648 11.3221 25.0476 10.4471 25.4304C9.79086 25.7585 9.13461 26.1413 8.47836 26.5242C8.20493 26.6882 7.93149 26.8523 7.71274 27.071L7.54868 27.1804L7.49399 27.2351L7.16586 27.5085C6.83774 27.782 6.50961 28.0554 6.23618 28.3835C6.1268 28.4929 6.01743 28.657 5.90805 28.7663L5.85336 28.821L5.74399 28.9304ZM4.10336 27.0163C4.3768 27.3992 4.65024 27.782 4.97836 28.1648C5.14243 27.946 5.30649 27.782 5.47055 27.6179C6.18149 26.8523 7.0018 26.196 7.93149 25.5945C9.40805 24.6648 10.9393 23.8992 12.5799 23.3523L12.9081 23.1882L13.0721 23.1335H13.1268L13.2362 23.0788L13.3456 22.9695L13.4549 22.8601C13.4549 22.8601 13.4549 22.8054 13.5096 22.8054C13.5643 22.7507 13.619 22.6413 13.6737 22.5867C13.6737 22.5867 13.7831 22.4226 13.7831 22.3679V21.9851C13.7284 21.657 13.5643 21.3288 13.3456 21.0554C13.0174 20.6179 12.744 20.2351 12.4706 19.7429C12.0877 19.0867 11.7596 18.4304 11.4315 17.7195C10.7206 16.1882 10.3377 14.6023 10.2831 12.907C10.2831 11.7038 10.6112 10.5007 11.1581 9.40697C11.5956 8.47728 12.2518 7.65697 13.0721 7.0554C14.1112 6.28978 15.369 5.85228 16.6268 5.68822C18.0487 5.46947 19.4706 5.68822 20.783 6.1804C21.8221 6.6179 22.6971 7.27415 23.408 8.14915C24.3377 9.46165 24.8299 10.9382 24.9393 12.5242C24.994 13.3992 24.8846 14.2742 24.6659 15.0945C24.2284 16.7351 23.6268 18.321 22.7518 19.7429C22.4784 20.1804 22.2049 20.5632 21.8768 21.0007C21.658 21.2742 21.494 21.6023 21.4393 21.9304C21.4393 21.9304 21.4393 22.0398 21.4393 22.0945C21.4393 22.1492 21.4393 22.2585 21.4393 22.2585C21.4393 22.3132 21.4393 22.3679 21.494 22.3679V22.4226L21.6581 22.6413L21.7127 22.696L21.8221 22.8054L21.9315 22.9148L21.8768 23.1335H21.9315C21.9315 23.1335 22.0955 23.1882 22.1502 23.1882L22.5877 23.3523C23.4627 23.6804 24.3924 24.0632 25.2127 24.5007C26.4159 25.1023 27.5643 25.8132 28.6034 26.6882C29.0955 27.1257 29.5877 27.5632 29.9705 28.1101L30.1346 27.8913C30.6815 27.2898 31.1737 26.6335 31.6112 25.9226C31.8299 25.5398 32.0487 25.2117 32.2127 24.8288C32.4315 24.446 32.5955 24.0632 32.7049 23.7351C33.3612 22.1492 33.744 20.5085 33.8534 18.8132C34.1268 15.3679 33.3065 11.9226 31.5018 8.96947C29.7518 6.12572 27.2362 3.88353 24.1737 2.51634C15.9159 -1.20241 6.1268 2.46165 2.40805 10.7742C1.80649 12.1413 1.36899 13.5632 1.15024 15.0398C1.04086 15.8601 0.986176 16.6804 0.986176 17.5554C1.04086 20.946 2.13461 24.2273 4.10336 27.0163Z" fill="#57B99C"/>
<path d="M5.74219 28.875C7.4375 30.6797 9.51562 32.0469 11.8125 32.9219C15.0937 34.125 18.6484 34.2344 21.9844 33.3047C23.625 32.8672 25.1562 32.1562 26.5234 31.2266C27.5078 30.5703 28.4375 29.8047 29.2578 28.9844L29.2031 28.9297L29.0937 28.8203C29.0937 28.8203 29.0938 28.7656 29.0391 28.7656L28.9844 28.7109C28.875 28.6016 28.7656 28.4375 28.6562 28.3281C28.3281 28 28.0547 27.7266 27.6719 27.3984L27.3984 27.1797H27.3438L27.125 27.0156C26.8516 26.8516 26.6328 26.6328 26.3594 26.4688C24.9375 25.5938 23.4062 24.8281 21.8203 24.2812C21.4375 24.1719 21.1094 23.9531 20.8359 23.6797C20.3984 23.2969 20.125 22.75 20.0703 22.1484C20.0156 21.2734 20.6172 20.6172 21.0547 19.9062C21.4922 19.25 21.9297 18.5391 22.2578 17.8281C22.6406 17.0625 22.9141 16.2422 23.1875 15.4766C23.4609 14.6562 23.625 13.7812 23.625 12.9062V12.0859C23.5703 11.7578 23.5156 11.4297 23.4062 11.1016C23.3516 10.9375 23.2969 10.7187 23.2422 10.5547L23.1328 10.2812L23.0781 10.1172C22.9141 9.67969 22.6953 9.29687 22.4219 8.96875L22.3125 8.85938C22.2578 8.75 22.1484 8.69531 22.0938 8.58594C21.9297 8.36719 21.7656 8.20312 21.5469 8.03906L21.4375 7.92969L21.3828 7.875L21.0547 7.65625C20.8359 7.49219 20.6172 7.38281 20.3438 7.27344H20.2891L20.1797 7.21875L19.9609 7.16406L19.5234 7C19.3594 6.94531 19.25 6.94531 19.0859 6.89063L18.8125 6.83594H18.6484C17.9375 6.72656 17.2266 6.72656 16.4609 6.83594H16.0781L15.8594 6.89063C15.6953 6.94531 15.5312 6.94531 15.3672 7C15.2031 7.05469 15.0938 7.10937 14.9297 7.10937L14.7109 7.16406L14.6016 7.21875H14.5469C14.2734 7.32812 14.0547 7.4375 13.8359 7.60156L13.5078 7.82031L13.3984 7.92969C13.3438 7.92969 13.3438 7.98437 13.2891 8.03906C13.125 8.20312 12.9062 8.36719 12.7422 8.58594C12.6875 8.69531 12.5781 8.75 12.5234 8.85938L12.4688 8.91406L12.4141 9.02344C12.1406 9.35156 11.9219 9.73438 11.7578 10.1719L11.7031 10.2812L11.6484 10.3359C11.5938 10.4453 11.5938 10.5547 11.5391 10.6094C11.4844 10.7734 11.4297 10.9922 11.375 11.1562C11.2656 11.4844 11.2109 11.7578 11.1562 12.0859V12.6328C11.1016 13.6172 11.2656 14.6016 11.5938 15.5859C12.0312 16.4062 12.25 17.1719 12.5781 17.9375C12.9062 18.7031 13.3438 19.4141 13.8359 20.0703C14.3281 20.7266 14.8203 21.3828 14.7656 22.2578C14.7109 22.8047 14.4375 23.3516 14.0547 23.7344C13.7266 24.0078 13.3984 24.1719 13.0156 24.3359C12.1406 24.6641 11.3203 25.0469 10.4453 25.4297C9.78906 25.7578 9.13281 26.1406 8.47656 26.5234C8.20312 26.6875 7.92969 26.8516 7.71094 27.0703L7.54688 27.1797L7.49219 27.2344L7.16406 27.5078C6.83594 27.7812 6.50781 28.0547 6.23438 28.3828C6.125 28.4922 6.01562 28.6562 5.90625 28.7656L5.85156 28.8203L5.74219 28.875Z" fill="#57B99C"/>
<path d="M29.0937 28.7109C29.1484 28.7656 29.1484 28.7656 29.0937 28.7109V28.7109Z" fill="#57B99C"/>
</svg>
