<svg width="25" height="24" viewBox="0 0 25 24" fill="none" xmlns="http://www.w3.org/2000/svg">

<path d="M23.7779 10.0483L21.6136 9.73913C21.3817 8.81159 20.9953 7.92271 20.5315 7.11111L21.8455 5.37198C22.0774 5.0628 22.0388 4.63768 21.7682 4.36715L20.8793 3.51691L20.0291 2.66667C19.7586 2.39614 19.3334 2.35749 19.0243 2.58937L17.2851 3.90338C16.4735 3.40097 15.5846 3.05314 14.6571 2.82126L14.3479 0.657005C14.3093 0.270531 13.9615 0 13.575 0H11.2175C10.831 0 10.5218 0.270531 10.4445 0.657005L10.1354 2.82126C9.20784 3.05314 8.31895 3.40097 7.50735 3.90338L5.76822 2.58937C5.45904 2.35749 5.03392 2.39614 4.76339 2.66667L3.91315 3.51691L3.06291 4.36715C2.79238 4.63768 2.75373 5.0628 2.98561 5.37198L4.29962 7.11111C3.79721 7.92271 3.44938 8.77295 3.2175 9.73913L1.05325 10.0483C0.666772 10.087 0.39624 10.4348 0.39624 10.8213V13.2174C0.39624 13.6039 0.666772 13.913 1.05325 13.9903L3.2175 14.2995C3.44938 15.2271 3.79721 16.1159 4.29962 16.9275L2.98561 18.6667C2.75373 18.9758 2.79238 19.401 3.06291 19.6715L4.72474 21.3333C4.99527 21.6039 5.42039 21.6425 5.72957 21.4106L7.4687 20.0966C8.2803 20.599 9.13054 20.9469 10.0967 21.1787L10.4059 23.343C10.4445 23.7295 10.7924 24 11.1788 24H13.575C13.9615 24 14.2706 23.7295 14.3479 23.343L14.6571 21.1787C15.5846 20.9469 16.4735 20.5604 17.2851 20.0966L19.0243 21.4106C19.3334 21.6425 19.7586 21.6039 20.0291 21.3333L20.8793 20.4831L21.7296 19.6329C22.0001 19.3623 22.0388 18.9372 21.8069 18.628L20.4929 16.8889C20.9953 16.0773 21.3431 15.1884 21.575 14.2609L23.7392 13.9517C24.1257 13.913 24.3962 13.5652 24.3962 13.1787V10.8213C24.4349 10.4348 24.1257 10.087 23.7779 10.0483ZM14.5412 15.4203C14.1547 15.8068 13.575 16.0386 12.8793 16.1159V16.8116C12.8793 17.0821 12.6474 17.2754 12.4156 17.2754C12.1837 17.2754 11.9518 17.0821 11.9518 16.8116V16.1546C10.7924 16.0386 9.94213 15.343 9.6716 14.2222C9.63296 14.0676 9.6716 13.9517 9.7489 13.8357C9.82619 13.7198 9.98078 13.6425 10.1354 13.6425H10.174C10.3673 13.6425 10.5605 13.7971 10.6378 13.9903C10.831 14.6473 11.2948 15.0725 11.9518 15.2271V12.1353C10.5991 11.7488 9.78754 11.1691 9.78754 9.89372C9.78754 8.69565 10.6378 7.84541 11.9518 7.69082V7.30435C11.9518 7.03382 12.1837 6.84058 12.4156 6.84058C12.6474 6.84058 12.8793 7.07246 12.8793 7.30435V7.72947C14.3093 7.92271 14.7731 8.88889 14.889 9.35266C14.9276 9.50725 14.889 9.66184 14.8117 9.77778C14.7344 9.89372 14.5798 9.97101 14.4252 9.97101H14.3479C14.1547 9.97101 13.9615 9.85507 13.8842 9.66184C13.6909 9.15942 13.3817 8.85024 12.8407 8.7343V11.4396C14.4252 11.942 15.1209 12.6763 15.1209 13.913C15.1595 14.4541 14.9663 14.9952 14.5412 15.4203Z" fill="#57B99C"/>
<path d="M10.8311 9.73908C10.8311 10.2801 11.0243 10.6666 11.9518 11.0144V8.54102C10.9856 8.6956 10.8311 9.35261 10.8311 9.73908Z" fill="#57B99C"/>
<path d="M12.918 12.3672V15.1884C13.7296 15.0725 14.116 14.6474 14.116 13.8358C14.116 13.2174 13.8842 12.715 12.918 12.3672Z" fill="#57B99C"/>

</svg>
