<svg width="24" height="24" viewBox="0 0 24 24" fill="none" xmlns="http://www.w3.org/2000/svg">

<path d="M6.03748 21.6376V22.8001V24.0001H17.925V22.8001V21.6376V11.6626H6.03748V21.6376Z" fill="#57B99C"/>
<path d="M23.4375 5.32523C20.2125 3.78773 17.025 2.25023 13.8 0.712734C13.3875 0.525234 12.975 0.300234 12.525 0.112734C11.85 -0.187266 11.25 0.187734 10.65 0.487734C8.775 1.38773 6.9375 2.25023 5.0625 3.15023C3.5625 3.86273 2.025 4.61273 0.525 5.32523C0.1875 5.47523 0 5.88773 0 6.26273V22.9502C0 23.5127 0.4875 24.0002 1.05 24.0002H3.9375V22.9502V21.9002V9.97523C3.9375 9.41273 4.425 8.92523 4.9875 8.92523H18.975C19.5375 8.92523 20.025 9.41273 20.025 9.97523V21.9002V22.9502V24.0002H22.9125C23.475 24.0002 23.9625 23.5127 23.9625 22.9502V6.26273C23.9625 5.88773 23.775 5.47523 23.4375 5.32523ZM14.4 6.56273H9.5625C8.9625 6.56273 8.55 6.07523 8.5125 5.51273C8.475 4.95023 9.0375 4.46273 9.5625 4.46273H14.4C15 4.46273 15.4125 4.95023 15.45 5.51273C15.4875 6.07523 14.9625 6.56273 14.4 6.56273Z" fill="#57B99C"/>

</svg>
