<svg width="27" height="24" viewBox="0 0 27 24" fill="none" xmlns="http://www.w3.org/2000/svg">

<path d="M13.4156 24.0002C18.5503 24.0002 22.7341 19.8163 22.7341 14.6816H4.09705C4.09705 19.8163 8.28088 24.0002 13.4156 24.0002Z" fill="#57B99C"/>
<path d="M11.4378 6.31383C11.4378 6.73221 11.2857 7.41684 11.8942 7.45487C12.731 7.49291 13.6058 7.45487 14.4806 7.45487C14.7088 7.45487 15.0891 7.53094 15.2793 7.34077C15.4315 7.18863 15.3934 6.96042 15.3934 6.77024V1.5975V1.44536C15.3934 1.06501 15.5836 0.0380732 14.975 3.83123e-05H12.3506C12.0464 3.83123e-05 11.5519 -0.0760314 11.4378 0.342352C11.3998 0.494492 11.4378 0.722701 11.4378 0.87484V1.5975V6.31383Z" fill="#57B99C"/>
<path d="M25.1304 11.1443C24.8261 11.1443 24.5218 11.1443 24.2175 11.1443C23.7611 6.73223 20.6423 3.11892 16.5345 1.86377V4.94459C16.5345 5.62922 16.5725 6.31385 16.5345 6.99848C16.4965 7.75917 16.002 8.40577 15.2413 8.51987C14.861 8.59594 14.4806 8.55791 14.1003 8.55791H12.4267C12.0083 8.55791 11.59 8.59594 11.2096 8.40577C10.2207 7.98738 10.2587 7.03651 10.2587 6.16171C10.2587 4.71638 10.2587 3.30909 10.2587 1.86377C6.18901 3.11892 3.07015 6.73223 2.61374 11.1443C2.30946 11.1443 2.00518 11.1443 1.7009 11.1443C0.217539 11.1443 0.217539 13.4264 1.7009 13.4264C4.36334 13.4264 6.98774 13.4264 9.65019 13.4264C13.8721 13.4264 18.0559 13.4264 22.2778 13.4264C23.2286 13.4264 24.1795 13.4264 25.1684 13.4264C26.6137 13.4264 26.6137 11.1443 25.1304 11.1443Z" fill="#57B99C"/>

</svg>
