<svg width="22" height="24" viewBox="0 0 22 24" fill="none" xmlns="http://www.w3.org/2000/svg">
<path d="M11.4869 14.5875V17.325C12.2744 17.2125 12.6494 16.7625 12.6494 16.0125C12.6869 15.45 12.4619 14.9625 11.4869 14.5875ZM9.49945 12.075C9.49945 12.6 9.68694 12.975 10.5869 13.3125V10.9125C9.64944 11.025 9.49945 11.7 9.49945 12.075ZM11.4869 14.5875V17.325C12.2744 17.2125 12.6494 16.7625 12.6494 16.0125C12.6869 15.45 12.4619 14.9625 11.4869 14.5875ZM9.49945 12.075C9.49945 12.6 9.68694 12.975 10.5869 13.3125V10.9125C9.64944 11.025 9.49945 11.7 9.49945 12.075ZM9.49945 12.075C9.49945 12.6 9.68694 12.975 10.5869 13.3125V10.9125C9.64944 11.025 9.49945 11.7 9.49945 12.075ZM11.4869 14.5875V17.325C12.2744 17.2125 12.6494 16.7625 12.6494 16.0125C12.6869 15.45 12.4619 14.9625 11.4869 14.5875ZM11.4869 14.5875V17.325C12.2744 17.2125 12.6494 16.7625 12.6494 16.0125C12.6869 15.45 12.4619 14.9625 11.4869 14.5875ZM9.49945 12.075C9.49945 12.6 9.68694 12.975 10.5869 13.3125V10.9125C9.64944 11.025 9.49945 11.7 9.49945 12.075ZM9.49945 12.075C9.49945 12.6 9.68694 12.975 10.5869 13.3125V10.9125C9.64944 11.025 9.49945 11.7 9.49945 12.075ZM11.4869 14.5875V17.325C12.2744 17.2125 12.6494 16.7625 12.6494 16.0125C12.6869 15.45 12.4619 14.9625 11.4869 14.5875ZM11.4869 14.5875V17.325C12.2744 17.2125 12.6494 16.7625 12.6494 16.0125C12.6869 15.45 12.4619 14.9625 11.4869 14.5875ZM9.49945 12.075C9.49945 12.6 9.68694 12.975 10.5869 13.3125V10.9125C9.64944 11.025 9.49945 11.7 9.49945 12.075ZM9.49945 12.075C9.49945 12.6 9.68694 12.975 10.5869 13.3125V10.9125C9.64944 11.025 9.49945 11.7 9.49945 12.075ZM11.4869 14.5875V17.325C12.2744 17.2125 12.6494 16.7625 12.6494 16.0125C12.6869 15.45 12.4619 14.9625 11.4869 14.5875ZM11.4869 14.5875V17.325C12.2744 17.2125 12.6494 16.7625 12.6494 16.0125C12.6869 15.45 12.4619 14.9625 11.4869 14.5875ZM9.49945 12.075C9.49945 12.6 9.68694 12.975 10.5869 13.3125V10.9125C9.64944 11.025 9.49945 11.7 9.49945 12.075ZM9.49945 12.075C9.49945 12.6 9.68694 12.975 10.5869 13.3125V10.9125C9.64944 11.025 9.49945 11.7 9.49945 12.075ZM11.4869 14.5875V17.325C12.2744 17.2125 12.6494 16.7625 12.6494 16.0125C12.6869 15.45 12.4619 14.9625 11.4869 14.5875ZM11.4869 14.5875V17.325C12.2744 17.2125 12.6494 16.7625 12.6494 16.0125C12.6869 15.45 12.4619 14.9625 11.4869 14.5875ZM9.49945 12.075C9.49945 12.6 9.68694 12.975 10.5869 13.3125V10.9125C9.64944 11.025 9.49945 11.7 9.49945 12.075ZM9.49945 12.075C9.49945 12.6 9.68694 12.975 10.5869 13.3125V10.9125C9.64944 11.025 9.49945 11.7 9.49945 12.075ZM11.4869 14.5875V17.325C12.2744 17.2125 12.6494 16.7625 12.6494 16.0125C12.6869 15.45 12.4619 14.9625 11.4869 14.5875ZM11.4869 14.5875V17.325C12.2744 17.2125 12.6494 16.7625 12.6494 16.0125C12.6869 15.45 12.4619 14.9625 11.4869 14.5875ZM9.49945 12.075C9.49945 12.6 9.68694 12.975 10.5869 13.3125V10.9125C9.64944 11.025 9.49945 11.7 9.49945 12.075ZM9.49945 12.075C9.49945 12.6 9.68694 12.975 10.5869 13.3125V10.9125C9.64944 11.025 9.49945 11.7 9.49945 12.075ZM11.4869 14.5875V17.325C12.2744 17.2125 12.6494 16.7625 12.6494 16.0125C12.6869 15.45 12.4619 14.9625 11.4869 14.5875ZM11.4869 14.5875V17.325C12.2744 17.2125 12.6494 16.7625 12.6494 16.0125C12.6869 15.45 12.4619 14.9625 11.4869 14.5875ZM9.49945 12.075C9.49945 12.6 9.68694 12.975 10.5869 13.3125V10.9125C9.64944 11.025 9.49945 11.7 9.49945 12.075ZM9.49945 12.075C9.49945 12.6 9.68694 12.975 10.5869 13.3125V10.9125C9.64944 11.025 9.49945 11.7 9.49945 12.075ZM11.4869 14.5875V17.325C12.2744 17.2125 12.6494 16.7625 12.6494 16.0125C12.6869 15.45 12.4619 14.9625 11.4869 14.5875ZM11.4869 14.5875V17.325C12.2744 17.2125 12.6494 16.7625 12.6494 16.0125C12.6869 15.45 12.4619 14.9625 11.4869 14.5875ZM9.49945 12.075C9.49945 12.6 9.68694 12.975 10.5869 13.3125V10.9125C9.64944 11.025 9.49945 11.7 9.49945 12.075ZM14.5994 5.925C14.5244 5.9625 14.4869 5.9625 14.4119 5.9625H7.62445C7.54945 5.9625 7.51195 5.9625 7.43695 5.925C4.28695 7.7625 0.536947 11.325 0.611947 16.2C0.761947 23.7 9.38695 24 10.9995 24C12.612 24 21.2744 23.7 21.3869 16.2C21.4994 11.325 17.7494 7.7625 14.5994 5.925ZM13.0994 17.55C12.7244 17.925 12.1619 18.15 11.4869 18.225V18.9C11.4869 19.1625 11.2619 19.35 11.0369 19.35C10.8119 19.35 10.5869 19.125 10.5869 18.9V18.2625C9.46194 18.15 8.63695 17.4375 8.37445 16.3875C8.33695 16.2375 8.37443 16.125 8.44943 16.0125C8.52443 15.9 8.67443 15.825 8.82443 15.825H8.86195C9.04945 15.825 9.23695 15.975 9.31195 16.1625C9.49945 16.8 9.94944 17.2125 10.5869 17.3625V14.3625C9.27444 13.9875 8.48695 13.425 8.48695 12.1875C8.48695 11.025 9.31194 10.2 10.5869 10.05V9.675C10.5869 9.4125 10.8119 9.225 11.0369 9.225C11.2619 9.225 11.4869 9.45 11.4869 9.675V10.0875C12.8744 10.275 13.3245 11.2125 13.437 11.6625C13.4745 11.8125 13.4369 11.9625 13.3619 12.075C13.2869 12.1875 13.1369 12.2625 12.9869 12.2625H12.9119C12.7244 12.2625 12.5369 12.15 12.4619 11.9625C12.2744 11.475 11.9744 11.175 11.4494 11.0625V13.6875C12.9869 14.175 13.6619 14.8875 13.6619 16.0875C13.6994 16.6125 13.4744 17.175 13.0994 17.55ZM11.4869 14.5875V17.325C12.2744 17.2125 12.6494 16.7625 12.6494 16.0125C12.6869 15.45 12.4619 14.9625 11.4869 14.5875ZM9.49945 12.075C9.49945 12.6 9.68694 12.975 10.5869 13.3125V10.9125C9.64944 11.025 9.49945 11.7 9.49945 12.075ZM9.49945 12.075C9.49945 12.6 9.68694 12.975 10.5869 13.3125V10.9125C9.64944 11.025 9.49945 11.7 9.49945 12.075ZM11.4869 14.5875V17.325C12.2744 17.2125 12.6494 16.7625 12.6494 16.0125C12.6869 15.45 12.4619 14.9625 11.4869 14.5875ZM11.4869 14.5875V17.325C12.2744 17.2125 12.6494 16.7625 12.6494 16.0125C12.6869 15.45 12.4619 14.9625 11.4869 14.5875ZM9.49945 12.075C9.49945 12.6 9.68694 12.975 10.5869 13.3125V10.9125C9.64944 11.025 9.49945 11.7 9.49945 12.075ZM9.49945 12.075C9.49945 12.6 9.68694 12.975 10.5869 13.3125V10.9125C9.64944 11.025 9.49945 11.7 9.49945 12.075ZM11.4869 14.5875V17.325C12.2744 17.2125 12.6494 16.7625 12.6494 16.0125C12.6869 15.45 12.4619 14.9625 11.4869 14.5875ZM11.4869 14.5875V17.325C12.2744 17.2125 12.6494 16.7625 12.6494 16.0125C12.6869 15.45 12.4619 14.9625 11.4869 14.5875ZM9.49945 12.075C9.49945 12.6 9.68694 12.975 10.5869 13.3125V10.9125C9.64944 11.025 9.49945 11.7 9.49945 12.075ZM9.49945 12.075C9.49945 12.6 9.68694 12.975 10.5869 13.3125V10.9125C9.64944 11.025 9.49945 11.7 9.49945 12.075ZM11.4869 14.5875V17.325C12.2744 17.2125 12.6494 16.7625 12.6494 16.0125C12.6869 15.45 12.4619 14.9625 11.4869 14.5875ZM11.4869 14.5875V17.325C12.2744 17.2125 12.6494 16.7625 12.6494 16.0125C12.6869 15.45 12.4619 14.9625 11.4869 14.5875ZM9.49945 12.075C9.49945 12.6 9.68694 12.975 10.5869 13.3125V10.9125C9.64944 11.025 9.49945 11.7 9.49945 12.075ZM9.49945 12.075C9.49945 12.6 9.68694 12.975 10.5869 13.3125V10.9125C9.64944 11.025 9.49945 11.7 9.49945 12.075ZM11.4869 14.5875V17.325C12.2744 17.2125 12.6494 16.7625 12.6494 16.0125C12.6869 15.45 12.4619 14.9625 11.4869 14.5875ZM11.4869 14.5875V17.325C12.2744 17.2125 12.6494 16.7625 12.6494 16.0125C12.6869 15.45 12.4619 14.9625 11.4869 14.5875ZM9.49945 12.075C9.49945 12.6 9.68694 12.975 10.5869 13.3125V10.9125C9.64944 11.025 9.49945 11.7 9.49945 12.075ZM9.49945 12.075C9.49945 12.6 9.68694 12.975 10.5869 13.3125V10.9125C9.64944 11.025 9.49945 11.7 9.49945 12.075ZM11.4869 14.5875V17.325C12.2744 17.2125 12.6494 16.7625 12.6494 16.0125C12.6869 15.45 12.4619 14.9625 11.4869 14.5875ZM11.4869 14.5875V17.325C12.2744 17.2125 12.6494 16.7625 12.6494 16.0125C12.6869 15.45 12.4619 14.9625 11.4869 14.5875ZM9.49945 12.075C9.49945 12.6 9.68694 12.975 10.5869 13.3125V10.9125C9.64944 11.025 9.49945 11.7 9.49945 12.075ZM9.49945 12.075C9.49945 12.6 9.68694 12.975 10.5869 13.3125V10.9125C9.64944 11.025 9.49945 11.7 9.49945 12.075ZM11.4869 14.5875V17.325C12.2744 17.2125 12.6494 16.7625 12.6494 16.0125C12.6869 15.45 12.4619 14.9625 11.4869 14.5875ZM11.4869 14.5875V17.325C12.2744 17.2125 12.6494 16.7625 12.6494 16.0125C12.6869 15.45 12.4619 14.9625 11.4869 14.5875ZM9.49945 12.075C9.49945 12.6 9.68694 12.975 10.5869 13.3125V10.9125C9.64944 11.025 9.49945 11.7 9.49945 12.075ZM9.49945 12.075C9.49945 12.6 9.68694 12.975 10.5869 13.3125V10.9125C9.64944 11.025 9.49945 11.7 9.49945 12.075ZM11.4869 14.5875V17.325C12.2744 17.2125 12.6494 16.7625 12.6494 16.0125C12.6869 15.45 12.4619 14.9625 11.4869 14.5875ZM11.4869 14.5875V17.325C12.2744 17.2125 12.6494 16.7625 12.6494 16.0125C12.6869 15.45 12.4619 14.9625 11.4869 14.5875ZM9.49945 12.075C9.49945 12.6 9.68694 12.975 10.5869 13.3125V10.9125C9.64944 11.025 9.49945 11.7 9.49945 12.075ZM11.4869 14.5875V17.325C12.2744 17.2125 12.6494 16.7625 12.6494 16.0125C12.6869 15.45 12.4619 14.9625 11.4869 14.5875ZM9.49945 12.075C9.49945 12.6 9.68694 12.975 10.5869 13.3125V10.9125C9.64944 11.025 9.49945 11.7 9.49945 12.075ZM11.4869 14.5875V17.325C12.2744 17.2125 12.6494 16.7625 12.6494 16.0125C12.6869 15.45 12.4619 14.9625 11.4869 14.5875ZM9.49945 12.075C9.49945 12.6 9.68694 12.975 10.5869 13.3125V10.9125C9.64944 11.025 9.49945 11.7 9.49945 12.075Z" fill="white"/>
<path d="M13.5869 4.5375L15.0494 1.7625C15.4619 0.975 14.8994 0 13.9994 0H8.07437C7.17437 0 6.57438 0.975 7.02438 1.7625L8.48689 4.5375H13.5869Z" fill="#2E578B"/>
</svg>
