<svg width="24" height="24" viewBox="0 0 24 24" fill="none" xmlns="http://www.w3.org/2000/svg">
<path d="M0.0786133 13.9673V20.6165C0.0786133 22.0329 4.6032 24.0001 11.9999 24.0001C19.3966 24.0001 23.9212 22.0329 23.9212 20.6165V13.9673C21.718 15.6591 16.7606 16.5247 11.9999 16.5247C7.23926 16.5247 2.28189 15.6591 0.0786133 13.9673Z" fill="white"/>
<path d="M0.0786133 5.31152V11.9607C0.0786133 13.3771 4.6032 15.305 11.9999 15.305C19.3966 15.305 23.9212 13.3377 23.9212 11.9607V5.31152C21.718 7.00332 16.7606 7.8689 11.9999 7.8689C7.23926 7.8689 2.28189 7.00332 0.0786133 5.31152Z" fill="white"/>
<path d="M11.9999 0C5.62615 0 1.33763 1.45574 0.314681 2.75409C0.157304 2.95082 0.0786133 3.14754 0.0786133 3.34426C0.0786133 3.54098 0.157304 3.7377 0.314681 3.93442C1.33763 5.23278 5.62615 6.68851 11.9999 6.68851C18.3737 6.68851 22.6622 5.23278 23.6852 3.93442C23.8425 3.7377 23.9212 3.54098 23.9212 3.34426C23.9212 3.14754 23.8425 2.95082 23.6852 2.75409C22.6622 1.45574 18.413 0 11.9999 0Z" fill="white"/>
</svg>
