<svg width="24" height="24" viewBox="0 0 24 24" fill="none" xmlns="http://www.w3.org/2000/svg">
<path d="M12.9498 22.9505V23.4755V24.0005H18.1998V23.4755V22.9505V18.563H12.9498V22.9505Z" fill="white"/>
<path d="M12.9499 15.7254V16.2504V16.7754H18.1999V16.2504V15.7254V11.3379H12.9499V15.7254Z" fill="white"/>
<path d="M5.79984 22.9505V23.4755V24.0005H11.0498V23.4755V22.9505V18.563H5.79984V22.9505Z" fill="white"/>
<path d="M23.4561 5.32523C20.2311 3.78773 17.0436 2.25023 13.8186 0.712734C13.4061 0.525234 12.9936 0.300234 12.5436 0.112734C11.8686 -0.187266 11.2686 0.187734 10.6686 0.487734C8.79356 1.38773 6.95606 2.25023 5.08106 3.15023C3.58105 3.86273 2.04355 4.61273 0.543555 5.32523C0.206055 5.47523 0.0185547 5.88773 0.0185547 6.26273V22.9502C0.0185547 23.5127 0.506055 24.0002 1.06855 24.0002H3.95606V22.9502V21.9002V9.97523C3.95606 9.41273 4.44356 8.92523 5.00606 8.92523H18.9936C19.5561 8.92523 20.0436 9.41273 20.0436 9.97523V21.9002V22.9502V24.0002H22.9311C23.4936 24.0002 23.9811 23.5127 23.9811 22.9502V6.26273C23.9811 5.88773 23.7936 5.47523 23.4561 5.32523ZM14.4186 6.56273H9.58106C8.98106 6.56273 8.56856 6.07523 8.53106 5.51273C8.49356 4.95023 9.05606 4.46273 9.58106 4.46273H14.4186C15.0186 4.46273 15.4311 4.95023 15.4686 5.51273C15.5061 6.07523 14.9811 6.56273 14.4186 6.56273Z" fill="white"/>
</svg>
