<svg width="26" height="24" viewBox="0 0 26 24" fill="none" xmlns="http://www.w3.org/2000/svg">
<path d="M20.1436 0.75C20.1436 0.3375 19.8061 0 19.3936 0H1.39355C0.981055 0 0.643555 0.3375 0.643555 0.75V2.4H20.1436V0.75Z" fill="white"/>
<path d="M12.1186 18.8624H4.95606C3.86855 18.8624 3.86855 17.1749 4.95606 17.1749H12.0811C12.1561 16.2749 12.4186 15.3749 12.7936 14.5874H4.95606C3.86855 14.5874 3.86855 12.8999 4.95606 12.8999H13.9561C15.2686 11.4749 17.1436 10.5749 19.2436 10.5749C19.5436 10.5749 19.8436 10.5749 20.1436 10.6124V3.5249H0.643555V23.2499C0.643555 23.6624 0.981055 23.9999 1.39355 23.9999H15.5311C13.7311 22.9124 12.4186 21.0374 12.1186 18.8624ZM4.95606 8.6624H15.7936C16.8811 8.6624 16.8811 10.3499 15.7936 10.3499H4.95606C3.86855 10.3499 3.86855 8.6624 4.95606 8.6624Z" fill="white"/>
<path d="M20.1435 11.8123C19.8435 11.7748 19.5435 11.7373 19.2435 11.7373C17.8935 11.7373 16.656 12.1873 15.6435 12.9373C15.006 13.3873 14.481 13.9873 14.0685 14.6248C13.581 15.3748 13.281 16.2748 13.1685 17.2123C13.131 17.4373 13.131 17.6248 13.131 17.8498C13.131 18.2248 13.1685 18.5623 13.206 18.8998C13.6935 21.7498 16.206 23.9623 19.206 23.9623C19.3935 23.9623 19.5435 23.9623 19.6935 23.9248C22.806 23.6623 25.281 21.0373 25.281 17.8498C25.356 14.7748 23.0685 12.2248 20.1435 11.8123ZM22.8435 15.3373C22.6935 15.5623 22.5435 15.7873 22.3935 16.0498C21.6435 17.2123 20.8935 18.3748 20.1435 19.5373C19.8435 20.0248 19.5435 20.4748 19.206 20.9623C19.0185 21.2248 18.5685 21.3748 18.306 21.0748C17.6685 20.2873 16.9935 19.4998 16.356 18.7123C16.1685 18.4498 15.9435 18.2248 15.7185 17.9623C15.531 17.7748 15.4935 17.4748 15.6435 17.2498C15.6435 17.2123 15.681 17.2123 15.7185 17.1748C15.906 16.9873 16.3185 16.9498 16.506 17.1748C17.2185 18.0373 17.931 18.8998 18.6435 19.7623C18.6435 19.7623 18.6435 19.7248 18.681 19.7248C19.1685 18.9748 19.656 18.2623 20.106 17.5123C20.706 16.6123 21.2685 15.7123 21.8685 14.8123C22.281 14.1373 23.256 14.6998 22.8435 15.3373Z" fill="white"/>
</svg>
