<svg width="24" height="24" viewBox="0 0 24 24" fill="none" xmlns="http://www.w3.org/2000/svg">
<path d="M23.0804 19.4986L18.1003 14.5186C17.1426 16.0509 15.8402 17.315 14.2695 18.1961L19.3262 23.2528C20.3222 24.2488 21.9311 24.2488 22.9271 23.2528L23.0804 23.0995C24.0764 22.1035 24.0764 20.4946 23.0804 19.4986Z" fill="white"/>
<path d="M17.296 13.676C18.0622 12.3352 18.4836 10.8029 18.4836 9.15561C18.4836 4.09896 14.3846 0 9.32797 0C4.27132 0 0.172363 4.09896 0.172363 9.15561C0.172363 14.2123 4.27132 18.3112 9.32797 18.3112C10.822 18.3112 12.2011 17.9665 13.4269 17.3535C15.0359 16.5491 16.3766 15.2466 17.296 13.676Z" fill="white"/>
</svg>
