<svg width="20" height="24" viewBox="0 0 20 24" fill="none" xmlns="http://www.w3.org/2000/svg">
<path d="M17.4404 7.59867H16.5694C16.5694 6.73937 16.6073 5.88008 16.418 5.05814C16.0393 3.26483 14.7897 1.62096 13.1235 0.761669C9.56391 -1.14372 5.01977 0.686948 3.77014 4.46037C3.42933 5.46911 3.42932 6.55257 3.42932 7.63603H2.59625C1.38448 7.63603 0.399902 8.60741 0.399902 9.80295V21.8331C0.399902 23.0286 1.38448 24 2.59625 24H17.4025C18.6143 24 19.5988 23.0286 19.5988 21.8331V9.80295C19.6367 8.60741 18.6521 7.59867 17.4404 7.59867ZM5.20911 5.768C5.39845 4.31093 6.34515 2.96595 7.63265 2.2561C10.3591 0.724309 13.9187 2.2561 14.7139 5.24495C14.9033 5.99216 14.9032 6.8141 14.8654 7.59867H5.13337C5.13337 7.0009 5.13337 6.40313 5.20911 5.768ZM10.8893 16.3784V18.6201C10.8893 19.0684 10.5106 19.442 10.0562 19.442H9.98046C9.52604 19.442 9.14736 19.0684 9.14736 18.6201V16.3411C8.65508 16.0422 8.31427 15.5191 8.31427 14.9214C8.31427 13.9873 9.07162 13.2401 10.0183 13.2401C10.965 13.2401 11.7224 13.9873 11.7224 14.9214C11.7224 15.5565 11.3815 16.0795 10.8893 16.3784Z" fill="white"/>
</svg>
