<svg width="13" height="16" viewBox="0 0 13 16" fill="none" xmlns="http://www.w3.org/2000/svg">
<path d="M6.41329 13.9497C5.03902 13.9497 3.69746 13.9835 2.32318 13.9497C1.60332 13.9158 1.43972 13.3404 1.43972 12.7311C1.43972 11.851 1.43972 10.9709 1.43972 10.0908C1.43972 8.9399 1.43972 7.75515 1.43972 6.60426C1.43972 5.65646 1.43972 4.74252 1.43972 3.79472C1.43972 3.21927 1.30884 2.44073 1.93053 2.13608C2.15958 2.03453 2.45407 2.06838 2.71583 2.06838C3.17393 2.06838 3.63202 2.06838 4.12283 2.06838C4.87541 2.06838 5.66071 2.06838 6.41329 2.06838C7.3622 2.06838 7.3622 0.545133 6.41329 0.545133C5.00629 0.545133 3.56658 0.443584 2.1923 0.545133C0.850743 0.578983 0 1.69603 0 3.05002C0 3.93012 0 4.77636 0 5.65646C0 6.94276 0 8.2629 0 9.5492C0 10.5308 0 11.5125 0 12.528C0 12.7311 0 12.9003 0 13.1034C0.0327209 13.9497 0.425371 14.6944 1.11251 15.1344C1.93053 15.6422 3.04304 15.4729 3.95923 15.4729C4.77725 15.4729 5.59527 15.4729 6.41329 15.4729C7.3622 15.4729 7.3622 13.9497 6.41329 13.9497Z" fill="#4F4F4F"/>
<path d="M12.9372 8.14376L9.35061 11.6967C9.24193 11.8091 9.06803 11.6967 9.06803 11.5168V9.78531C9.06803 9.65038 8.98108 9.56044 8.89413 9.56044H5.06843C4.95974 9.56044 4.89453 9.448 4.89453 9.33557V7.98635V6.63713C4.89453 6.50221 4.98148 6.41226 5.06843 6.41226H8.8724C8.98108 6.41226 9.04629 6.29983 9.04629 6.18739V4.43341C9.04629 4.25351 9.22019 4.14108 9.32887 4.25351L12.9155 7.78397C13.0242 7.87391 13.0242 8.05381 12.9372 8.14376Z" fill="#4F4F4F"/>
</svg>
