<svg width="28" height="24" viewBox="0 0 28 24" fill="none" xmlns="http://www.w3.org/2000/svg">
<path d="M10.6625 15.2627V17.7752C11.6 17.6252 11.75 17.0252 11.75 16.5752C11.7125 16.0127 11.525 15.5627 10.6625 15.2627Z" fill="white"/>
<path d="M8.78752 12.9001C8.78752 13.3876 8.97502 13.7251 9.76252 14.0251V11.8501C9.12502 11.9251 8.78752 12.3001 8.78752 12.9001Z" fill="white"/>
<path d="M15.575 7.9123H16.025C15.2 7.1248 14.3375 6.4498 13.5125 5.9248C13.4375 5.9623 13.3625 5.9623 13.2875 5.9623H7.13748C7.06248 5.9623 6.98748 5.9623 6.91248 5.9248C4.06248 7.7248 0.612481 11.2873 0.687481 16.1998C0.799981 23.6998 8.71248 23.9998 10.2125 23.9998C10.7375 23.9998 11.975 23.9623 13.4 23.6248C13.325 23.3623 13.25 23.0998 13.25 22.7998V10.1998C13.25 8.9248 14.3 7.9123 15.575 7.9123ZM12.125 17.9998C11.7875 18.3373 11.2625 18.5623 10.625 18.6373V19.2373C10.625 19.4623 10.4375 19.6873 10.175 19.6873C9.94998 19.6873 9.72498 19.4998 9.72498 19.2373V18.6373C8.67498 18.5248 7.92498 17.8873 7.66248 16.9123C7.62498 16.7998 7.66248 16.6498 7.73748 16.5373C7.81248 16.4248 7.96248 16.3498 8.07498 16.3498H8.11248C8.29998 16.3498 8.48748 16.4623 8.52498 16.6498C8.67498 17.2123 9.12498 17.6248 9.64998 17.7373V14.9623C8.56248 14.6248 7.81248 14.0998 7.81248 12.9373C7.81248 11.8498 8.59998 11.0623 9.76248 10.9498V10.6123C9.76248 10.3873 9.94998 10.1623 10.2125 10.1623C10.475 10.1623 10.6625 10.3498 10.6625 10.6123V10.9873C11.975 11.1748 12.35 12.0373 12.5 12.4498C12.5375 12.5998 12.5 12.7123 12.425 12.8248C12.35 12.9373 12.2 13.0123 12.05 13.0123H11.975C11.7875 13.0123 11.6 12.8998 11.5625 12.7123C11.4125 12.2623 11.1125 11.9998 10.6625 11.8873V14.2873C12.125 14.7373 12.725 15.4123 12.725 16.4998C12.6875 17.0998 12.5 17.6248 12.125 17.9998Z" fill="white"/>
<path d="M7.88744 4.5375H10.1374C10.0999 4.5375 10.0624 4.5375 10.0249 4.5375H10.3999C10.3624 4.5375 10.3249 4.5375 10.2874 4.5375H12.5374L13.8874 1.7625C14.2624 0.975 13.7374 0 12.9124 0H10.2124H7.51244C6.68744 0 6.16244 0.975 6.53744 1.7625L7.88744 4.5375Z" fill="white"/>
<path d="M26.15 9.0376H17.0375H15.5375C14.9 9.0376 14.375 9.5626 14.375 10.2001V22.8376C14.375 23.0251 14.4125 23.1751 14.4875 23.3251C14.675 23.7376 15.0875 24.0001 15.5375 24.0001H26.1125C26.75 24.0001 27.275 23.4751 27.275 22.8376V10.2001C27.3125 9.5626 26.7875 9.0376 26.15 9.0376ZM15.875 16.5751C15.875 16.2751 16.1375 16.0126 16.4375 16.0126H17.675C17.975 16.0126 18.2375 16.2751 18.2375 16.5751V17.8126C18.2375 18.1126 17.975 18.3751 17.675 18.3751H16.4375C16.1375 18.3751 15.875 18.1126 15.875 17.8126V16.5751ZM18.2375 21.7126C18.2375 22.0126 17.975 22.2751 17.675 22.2751H16.625H16.4375C16.1375 22.2751 15.875 22.0126 15.875 21.7126V20.4751C15.875 20.1751 16.1375 19.9126 16.4375 19.9126H17.675C17.975 19.9126 18.2375 20.1751 18.2375 20.4751V20.8126V21.7126ZM21.875 21.7126C21.875 22.0126 21.6125 22.2751 21.3125 22.2751H20.075C19.775 22.2751 19.5125 22.0126 19.5125 21.7126V20.4751C19.5125 20.1751 19.775 19.9126 20.075 19.9126H21.3125C21.6125 19.9126 21.875 20.1751 21.875 20.4751V21.7126ZM21.875 17.8126C21.875 18.1126 21.6125 18.3751 21.3125 18.3751H20.075C19.8125 18.3751 19.5875 18.1876 19.55 17.9626C19.55 17.9251 19.5125 17.8501 19.5125 17.8126V16.5751C19.5125 16.3876 19.5875 16.2376 19.7375 16.1251C19.8125 16.0501 19.9625 16.0126 20.075 16.0126H21.3125C21.6125 16.0126 21.875 16.2751 21.875 16.5751V17.8126ZM25.55 21.7126C25.55 22.0126 25.2875 22.2751 24.9875 22.2751H23.9375C23.6375 22.2751 23.375 22.0126 23.375 21.7126V16.6126C23.375 16.3126 23.6375 16.0501 23.9375 16.0501H24.9875C25.2875 16.0501 25.55 16.3126 25.55 16.6126V21.7126ZM25.8125 13.9501C25.8125 14.2501 25.55 14.5126 25.25 14.5126H19.625H16.4375C16.1375 14.5126 15.875 14.2501 15.875 13.9501V11.3251C15.875 11.0251 16.1375 10.7626 16.4375 10.7626H18.275H25.2875C25.5875 10.7626 25.85 11.0251 25.85 11.3251V13.9501H25.8125Z" fill="white"/>
</svg>
