<svg width="25" height="24" viewBox="0 0 25 24" fill="none" xmlns="http://www.w3.org/2000/svg">
<path d="M24.3247 10.0097L22.1253 9.70048C21.8938 8.77295 21.5465 7.88406 21.0449 7.07246L22.3568 5.33333C22.5883 5.02415 22.5498 4.59903 22.2797 4.3285L20.6205 2.66667C20.3504 2.39614 19.926 2.35749 19.6173 2.58937L17.8809 3.90338C17.0707 3.40097 16.2218 3.05314 15.2572 2.82126L14.9485 0.657005C14.9099 0.270531 14.5626 0 14.1768 0H11.7845C11.3986 0 11.0899 0.270531 11.0128 0.657005L10.7041 2.82126C9.77805 3.05314 8.89059 3.40097 8.0803 3.90338L6.34397 2.58937C6.03528 2.35749 5.61085 2.39614 5.34075 2.66667L4.49188 3.47826L3.643 4.3285C3.3729 4.59903 3.33432 5.02415 3.56583 5.33333L4.87773 7.07246C4.41471 7.88406 4.02885 8.7343 3.79734 9.70048L1.63657 10.0097C1.25072 10.0483 0.980621 10.3961 0.980621 10.7826V13.1787C0.980621 13.5652 1.25072 13.8744 1.63657 13.9517L3.79734 14.2609C4.02885 15.1884 4.41471 16.0773 4.87773 16.8889L3.56583 18.628C3.33432 18.9372 3.3729 19.3623 3.643 19.6329L5.34075 21.3333C5.61085 21.6039 6.03528 21.6425 6.34397 21.4106L8.0803 20.0966C8.89059 20.599 9.77805 20.9469 10.7041 21.1787L11.0128 23.343C11.0899 23.7295 11.3986 24 11.7845 24H14.1382C14.524 24 14.8327 23.7295 14.9099 23.343L15.2186 21.1787C16.1446 20.9469 17.0321 20.599 17.8424 20.0966L19.5787 21.4106C19.8874 21.6425 20.3118 21.6039 20.5819 21.3333L21.4308 20.4444L22.2797 19.5942C22.5498 19.3237 22.5883 18.8986 22.3568 18.5894L21.0449 16.8502C21.5465 16.0386 21.8938 15.1498 22.1253 14.2222L24.3247 13.913C24.7105 13.8744 24.9806 13.5266 24.9806 13.1401V10.7826C24.9806 10.3961 24.6719 10.0483 24.3247 10.0097ZM12.942 16.0386C10.7041 16.0386 8.89059 14.2222 8.89059 11.9807C8.89059 9.73913 10.7041 7.92271 12.942 7.92271C15.18 7.92271 16.9935 9.73913 16.9935 11.9807C17.0321 14.2222 15.2186 16.0386 12.942 16.0386Z" fill="white"/>
</svg>
