<svg width="36" height="24" viewBox="0 0 31 20" fill="none" xmlns="http://www.w3.org/2000/svg">
<path d="M7.76113 11.8685C9.47634 11.8685 10.9326 10.7866 11.5152 9.24558C10.4796 8.16361 9.83232 6.6882 9.83232 5.04885C9.83232 4.78656 9.86469 4.55705 9.86469 4.32754C9.2498 3.9341 8.50546 3.70459 7.72876 3.70459C5.52812 3.70459 3.71582 5.54066 3.71582 7.80295C3.71582 10.0325 5.52812 11.8685 7.76113 11.8685Z" fill="white"/>
<path d="M7.98769 12.918H7.53461C3.81293 12.918 0.803223 15.9671 0.803223 19.7376V19.9999H6.27248V19.5737C6.27248 17.0163 7.30808 14.6885 8.9262 12.9835C8.63494 12.9508 8.31131 12.918 7.98769 12.918Z" fill="white"/>
<path d="M20.0912 9.24558C20.6738 10.7866 22.1301 11.8685 23.8453 11.8685C26.0783 11.8685 27.8906 10.0325 27.8906 7.77017C27.8906 5.50787 26.0783 3.70459 23.8453 3.70459C23.0686 3.70459 22.3243 3.9341 21.7094 4.32754C21.7417 4.55705 21.7417 4.81934 21.7417 5.04885C21.7741 6.6882 21.1268 8.16361 20.0912 9.24558Z" fill="white"/>
<path d="M24.0718 12.918H23.6187C23.2951 12.918 22.9715 12.9508 22.6479 12.9835C24.2984 14.6885 25.3016 16.9835 25.3016 19.5737V19.9999H30.7708V19.7376C30.8032 15.9671 27.7935 12.918 24.0718 12.918Z" fill="white"/>
<path d="M11.7741 8.03279C11.9035 8.22951 12.033 8.39344 12.1948 8.55738C12.3242 8.68853 12.4537 8.81967 12.6155 8.95082C13.4893 9.67213 14.5896 10.1311 15.787 10.1311C16.9844 10.1311 18.1171 9.70492 18.9585 8.95082C19.1204 8.81967 19.2498 8.68853 19.3793 8.55738C19.5411 8.39344 19.6705 8.22951 19.8 8.03279C20.3825 7.21312 20.7385 6.19672 20.7708 5.11476C20.7708 5.08197 20.7708 5.08197 20.7708 5.04918C20.7708 4.85246 20.7708 4.65574 20.7385 4.45902C20.7061 4.2623 20.6738 4.06557 20.6414 3.90164C20.156 1.67213 18.1495 0 15.8194 0C13.4569 0 11.4828 1.67213 10.965 3.90164C10.9327 4.09836 10.9003 4.2623 10.8679 4.45902C10.8356 4.65574 10.8356 4.85246 10.8356 5.04918C10.8356 5.08197 10.8356 5.11476 10.8356 5.11476C10.8356 6.22951 11.1916 7.21312 11.7741 8.03279Z" fill="white"/>
<path d="M21.5152 13.2462C21.3858 13.1151 21.224 12.9839 21.0621 12.8856C20.9003 12.7544 20.7385 12.6561 20.5767 12.5577C19.2822 11.7053 17.7288 11.1807 16.046 11.1807H15.4958C13.813 11.1807 12.2596 11.6725 10.9651 12.5577C10.8032 12.6561 10.6414 12.7872 10.4796 12.8856C10.3178 12.9839 10.1884 13.1151 10.0265 13.2462C8.27897 14.7872 7.17865 17.0495 7.17865 19.5413V20.0003H14.622H15.1075H15.69H15.9489H16.4343H16.9197H24.3631V19.5741C24.3631 17.0495 23.2628 14.7872 21.5152 13.2462Z" fill="white"/>
</svg>
