<svg width="25" height="24" viewBox="0 0 25 24" fill="none" xmlns="http://www.w3.org/2000/svg">
<path d="M13.8122 8.76773C15.8792 6.7613 15.8792 3.50823 13.8122 1.50181C11.7451 -0.504622 8.39381 -0.504622 6.32676 1.50181C4.25972 3.50823 4.25972 6.7613 6.32676 8.76773C8.39381 10.7742 11.7451 10.7742 13.8122 8.76773Z" fill="white"/>
<path d="M10.5031 18.8624C9.81429 18.6513 9.92305 17.9123 9.92305 17.3844C9.92305 16.8214 9.85054 16.0824 10.5756 15.8712C10.9382 15.7656 11.3369 15.7304 11.6995 15.6953C11.8082 15.3082 11.9895 14.9211 12.1708 14.5692C11.917 14.2524 11.627 13.9709 11.4457 13.619C11.1194 12.9856 11.6995 12.5633 12.1345 12.141C12.207 12.0706 12.2795 12.0002 12.3158 11.9299C11.7357 11.8243 11.1194 11.7539 10.4669 11.7539H9.59676C4.52124 11.7891 0.352051 15.836 0.352051 20.7979V21.3961H11.4095C11.4095 21.2906 11.4457 21.2202 11.5182 21.1146C11.6995 20.7979 11.9533 20.5164 12.207 20.2348C12.0258 19.8829 11.8445 19.4958 11.7357 19.1087C11.3007 19.0032 10.8656 19.0032 10.5031 18.8624Z" fill="white"/>
<path d="M24.3158 16.7862C24.2795 16.6102 24.2433 16.6102 24.062 16.6102C23.6995 16.5399 23.2644 16.5047 22.9019 16.4343C22.7569 16.3991 22.6481 16.2935 22.6119 16.1528C22.4668 15.6601 22.2856 15.1674 21.9955 14.71C21.923 14.6044 21.923 14.4284 21.9955 14.3229C22.2493 14.0061 22.5031 13.7246 22.7206 13.4079C22.7931 13.2671 22.7931 13.2319 22.6844 13.0912C22.5756 12.9504 22.4306 12.8097 22.2856 12.7041C22.1406 12.5633 22.0318 12.3874 21.8505 12.2818C21.7418 12.2114 21.7418 12.2466 21.5968 12.317C21.2705 12.5281 20.9804 12.7745 20.6542 12.9856C20.5454 13.056 20.3641 13.056 20.2554 12.9856C19.7841 12.7041 19.3128 12.5281 18.769 12.3874C18.6602 12.3522 18.5152 12.2466 18.4789 12.1058C18.4064 11.7188 18.4064 11.3317 18.2977 10.9446C18.2614 10.7686 18.2252 10.7686 18.0801 10.7334C17.8989 10.6982 17.7176 10.7334 17.5001 10.7334C17.2826 10.7334 17.065 10.6982 16.8838 10.7334C16.7388 10.7686 16.7025 10.8038 16.7025 10.9797C16.63 11.3317 16.5937 11.7188 16.5212 12.1058C16.5212 12.2466 16.3762 12.3522 16.2312 12.3874C16.0137 12.4578 15.7962 12.5281 15.5786 12.5985C15.3611 12.6689 15.1798 12.7745 14.9623 12.88C14.8898 12.9152 14.8536 12.9504 14.781 12.9856C14.6723 13.0912 14.5273 13.0912 14.346 12.9856C14.0197 12.7393 13.7297 12.4929 13.4034 12.2818C13.3672 12.2818 13.3672 12.2466 13.3309 12.2466H13.2946C13.2584 12.2466 13.1859 12.2466 13.1134 12.317C12.9684 12.4226 12.8233 12.5985 12.7146 12.7041C12.5696 12.8449 12.3883 12.9504 12.2795 13.1264C12.207 13.2671 12.207 13.3023 12.3158 13.4079C12.5333 13.7246 12.7871 14.0061 13.0046 14.3229C13.0771 14.4284 13.0771 14.6044 13.0046 14.71C12.7146 15.1674 12.5333 15.6249 12.3883 16.1528C12.352 16.2583 12.2433 16.3991 12.0983 16.4343C11.6995 16.5047 11.3007 16.5047 10.9019 16.6102C10.7206 16.6454 10.7206 16.6454 10.6844 16.8214C10.6481 16.9973 10.6844 17.2085 10.6844 17.3844C10.6844 17.5604 10.6481 17.8067 10.6844 17.9827C10.7206 18.1586 10.7569 18.1586 10.9381 18.1586C11.3007 18.229 11.6995 18.2642 12.0983 18.3346C12.2433 18.3698 12.352 18.5105 12.3883 18.6161C12.5333 19.144 12.7146 19.6014 13.0046 20.0589C13.0771 20.1645 13.0771 20.3405 13.0046 20.446C12.7508 20.7627 12.4971 21.0443 12.2795 21.361C12.2795 21.361 12.2795 21.361 12.2433 21.3962C12.1708 21.5369 12.1708 21.5369 12.2795 21.6777C12.352 21.7833 12.4608 21.8536 12.5333 21.924C12.5696 21.9592 12.6421 21.9944 12.6783 22.0648C12.7871 22.1704 12.9321 22.3815 13.0771 22.4519C13.0771 22.4519 13.0771 22.4519 13.1134 22.4519C13.2584 22.5223 13.2946 22.5223 13.4034 22.4519C13.6572 22.3111 13.8747 22.1 14.1285 21.924C14.201 21.8888 14.2735 21.8185 14.346 21.7833C14.4548 21.7129 14.636 21.7129 14.7448 21.7833C14.8536 21.8536 14.9261 21.8888 15.0348 21.924C15.3974 22.1 15.7962 22.2407 16.1949 22.3463C16.2675 22.3463 16.3037 22.3815 16.3762 22.4519C16.4487 22.5223 16.485 22.5575 16.485 22.6278C16.5575 23.0149 16.5575 23.402 16.6662 23.7891C16.7025 23.9651 16.7388 23.9651 16.8838 24.0003C17.065 24.0355 17.2826 24.0003 17.4638 24.0003C17.6451 24.0003 17.8989 24.0355 18.0801 24.0003C18.2252 23.9651 18.2252 23.9299 18.2614 23.7539C18.3339 23.402 18.3702 23.0149 18.4427 22.6278C18.4427 22.5575 18.4789 22.4871 18.5514 22.4519C18.5877 22.4167 18.6602 22.3815 18.7327 22.3463C19.1315 22.2407 19.5303 22.1 19.8928 21.924C20.0016 21.8888 20.1104 21.8185 20.1829 21.7833C20.2191 21.7833 20.2191 21.7481 20.2554 21.7481C20.3641 21.7129 20.5091 21.7129 20.5817 21.7833C20.6542 21.8185 20.7267 21.8888 20.7992 21.924C21.053 22.1 21.3067 22.3111 21.5605 22.4519C21.7055 22.5223 21.7418 22.5223 21.8868 22.4519C22.0318 22.3463 22.1406 22.2056 22.2856 22.0648C22.4306 21.924 22.6119 21.8185 22.7206 21.6425C22.7931 21.5017 22.7931 21.4666 22.6844 21.361C22.4668 21.0443 22.2131 20.7627 21.9955 20.446C21.923 20.3405 21.923 20.1645 21.9955 20.0589C22.2856 19.6014 22.4668 19.144 22.6119 18.6161C22.6481 18.5105 22.7569 18.3698 22.9019 18.3346C23.3007 18.2642 23.6995 18.2642 24.0983 18.1586C24.2795 18.1234 24.2795 18.0883 24.3158 17.9475C24.352 17.7715 24.3158 17.5956 24.3158 17.3844C24.3158 17.1733 24.3883 16.9622 24.3158 16.7862ZM19.8928 17.9827C19.8203 18.2642 19.7116 18.5105 19.5303 18.7217C19.0952 19.3551 18.3702 19.7422 17.5363 19.7422C16.1949 19.7422 15.1073 18.6865 15.1073 17.3844C15.1073 16.0824 16.1949 15.0267 17.5363 15.0267C17.5726 15.0267 17.6088 15.0267 17.6451 15.0267C17.9351 15.0267 18.2252 15.0971 18.4789 15.2026C19.3853 15.5545 20.0016 16.3991 20.0016 17.3844C19.9653 17.5956 19.9291 17.7715 19.8928 17.9827Z" fill="white"/>
</svg>
