<svg width="24" height="24" viewBox="0 0 24 24" fill="none" xmlns="http://www.w3.org/2000/svg">
<path d="M0 0.502418C0 3.08538 0 5.66834 0 8.28717C0 12.4127 0 16.5383 0 20.6639C0 21.5966 0 22.5293 0 23.4621C0 23.7491 0.251121 24.0002 0.538117 24.0002C3.12108 24.0002 5.70404 24.0002 8.32287 24.0002C12.4484 24.0002 16.574 24.0002 20.6996 24.0002C21.6323 24.0002 22.565 24.0002 23.4978 24.0002C24.1794 24.0002 24.1794 22.9239 23.4978 22.9239C20.9148 22.9239 18.3318 22.9239 15.713 22.9239C11.5874 22.9239 7.46188 22.9239 3.33632 22.9239C2.40359 22.9239 1.47085 22.9239 0.538117 22.9239C0.717489 23.1033 0.896861 23.2827 1.07623 23.4621C1.07623 20.8791 1.07623 18.2961 1.07623 15.7132C1.07623 11.5876 1.07623 7.46206 1.07623 3.3365C1.07623 2.40376 1.07623 1.47103 1.07623 0.538293C1.07623 -0.179196 0 -0.179196 0 0.502418Z" fill="#28558D"/>
<path d="M8.28552 21.0226H3.85571C3.65883 21.0226 3.49477 20.8432 3.49477 20.628V6.31405C3.49477 6.09881 3.65883 5.91943 3.85571 5.91943H8.28552C8.4824 5.91943 8.64647 6.09881 8.64647 6.31405V20.628C8.64647 20.8432 8.4824 21.0226 8.28552 21.0226Z" fill="#28558D"/>
<path d="M14.8482 21.0225H10.4184C10.2215 21.0225 10.0574 20.8432 10.0574 20.6279V14.8521C10.0574 14.6369 10.2215 14.4575 10.4184 14.4575H14.8482C15.0451 14.4575 15.2091 14.6369 15.2091 14.8521V20.6279C15.2091 20.8432 15.0451 21.0225 14.8482 21.0225Z" fill="#28558D"/>
<path d="M21.4108 21.0225H16.981C16.7841 21.0225 16.62 20.8431 16.62 20.6279V18.3678C16.62 18.1525 16.7841 17.9731 16.981 17.9731H21.4108C21.6077 17.9731 21.7717 18.1525 21.7717 18.3678V20.6279C21.7717 20.8431 21.6077 21.0225 21.4108 21.0225Z" fill="#28558D"/>
<path d="M11.2646 4.08986C12.3409 5.34546 13.4171 6.56519 14.4933 7.8208C14.6368 8.00017 14.9597 8.00017 15.1391 7.89255C15.8924 7.46205 16.6099 7.03156 17.3633 6.60107C17.148 6.56519 16.9328 6.52932 16.7175 6.52932C17.8296 7.71317 18.9417 8.93291 20.0539 10.1168C20.5202 10.619 21.2736 9.86564 20.8072 9.3634C19.6951 8.17954 18.583 6.95981 17.4709 5.77595C17.2915 5.59658 17.0045 5.56071 16.8252 5.70421C16.0718 6.1347 15.3543 6.56519 14.6009 6.99569C14.8162 7.03156 15.0314 7.06743 15.2467 7.06743C14.1704 5.81183 13.0942 4.5921 12.018 3.33649C11.5875 2.79838 10.7983 3.55174 11.2646 4.08986Z" fill="#28558D"/>
<path d="M19.9462 7.06741C20.0538 7.96427 20.1256 8.86114 20.2332 9.758C20.2332 9.90149 20.269 10.0091 20.269 10.1526C20.4484 9.97324 20.6278 9.79387 20.8072 9.6145C19.9462 9.54275 19.0852 9.50687 18.2601 9.43513C18.1525 9.43513 18.009 9.43513 17.9013 9.39925C17.6143 9.36338 17.3632 9.65037 17.3632 9.93737C17.3632 10.2602 17.6143 10.4396 17.9013 10.4755C18.7623 10.5472 19.6233 10.5831 20.4484 10.6549C20.556 10.6549 20.6995 10.6549 20.8072 10.6907C21.0583 10.7266 21.3812 10.4396 21.3453 10.1526C21.2377 9.25575 21.1659 8.35889 21.0583 7.46203C21.0583 7.31853 21.0224 7.21091 21.0224 7.06741C20.9865 6.78042 20.8072 6.5293 20.4843 6.5293C20.1973 6.56517 19.9103 6.78042 19.9462 7.06741Z" fill="#28558D"/>
</svg>
