<svg width="21" height="24" viewBox="0 0 21 24" fill="none" xmlns="http://www.w3.org/2000/svg">

<path d="M10.8844 14.5873V17.3248C11.6719 17.2123 12.0469 16.7623 12.0469 16.0123C12.0469 15.4498 11.8594 14.9623 10.8844 14.5873ZM8.85941 12.0748C8.85941 12.5998 9.04691 12.9748 9.94691 13.3123V10.9123C9.00941 11.0248 8.85941 11.6998 8.85941 12.0748ZM10.8844 14.5873V17.3248C11.6719 17.2123 12.0469 16.7623 12.0469 16.0123C12.0469 15.4498 11.8594 14.9623 10.8844 14.5873ZM8.85941 12.0748C8.85941 12.5998 9.04691 12.9748 9.94691 13.3123V10.9123C9.00941 11.0248 8.85941 11.6998 8.85941 12.0748ZM8.85941 12.0748C8.85941 12.5998 9.04691 12.9748 9.94691 13.3123V10.9123C9.00941 11.0248 8.85941 11.6998 8.85941 12.0748ZM10.8844 14.5873V17.3248C11.6719 17.2123 12.0469 16.7623 12.0469 16.0123C12.0469 15.4498 11.8594 14.9623 10.8844 14.5873ZM10.8844 14.5873V17.3248C11.6719 17.2123 12.0469 16.7623 12.0469 16.0123C12.0469 15.4498 11.8594 14.9623 10.8844 14.5873ZM8.85941 12.0748C8.85941 12.5998 9.04691 12.9748 9.94691 13.3123V10.9123C9.00941 11.0248 8.85941 11.6998 8.85941 12.0748ZM8.85941 12.0748C8.85941 12.5998 9.04691 12.9748 9.94691 13.3123V10.9123C9.00941 11.0248 8.85941 11.6998 8.85941 12.0748ZM10.8844 14.5873V17.3248C11.6719 17.2123 12.0469 16.7623 12.0469 16.0123C12.0469 15.4498 11.8594 14.9623 10.8844 14.5873ZM10.8844 14.5873V17.3248C11.6719 17.2123 12.0469 16.7623 12.0469 16.0123C12.0469 15.4498 11.8594 14.9623 10.8844 14.5873ZM8.85941 12.0748C8.85941 12.5998 9.04691 12.9748 9.94691 13.3123V10.9123C9.00941 11.0248 8.85941 11.6998 8.85941 12.0748ZM8.85941 12.0748C8.85941 12.5998 9.04691 12.9748 9.94691 13.3123V10.9123C9.00941 11.0248 8.85941 11.6998 8.85941 12.0748ZM10.8844 14.5873V17.3248C11.6719 17.2123 12.0469 16.7623 12.0469 16.0123C12.0469 15.4498 11.8594 14.9623 10.8844 14.5873ZM10.8844 14.5873V17.3248C11.6719 17.2123 12.0469 16.7623 12.0469 16.0123C12.0469 15.4498 11.8594 14.9623 10.8844 14.5873ZM8.85941 12.0748C8.85941 12.5998 9.04691 12.9748 9.94691 13.3123V10.9123C9.00941 11.0248 8.85941 11.6998 8.85941 12.0748ZM8.85941 12.0748C8.85941 12.5998 9.04691 12.9748 9.94691 13.3123V10.9123C9.00941 11.0248 8.85941 11.6998 8.85941 12.0748ZM10.8844 14.5873V17.3248C11.6719 17.2123 12.0469 16.7623 12.0469 16.0123C12.0469 15.4498 11.8594 14.9623 10.8844 14.5873ZM10.8844 14.5873V17.3248C11.6719 17.2123 12.0469 16.7623 12.0469 16.0123C12.0469 15.4498 11.8594 14.9623 10.8844 14.5873ZM8.85941 12.0748C8.85941 12.5998 9.04691 12.9748 9.94691 13.3123V10.9123C9.00941 11.0248 8.85941 11.6998 8.85941 12.0748ZM8.85941 12.0748C8.85941 12.5998 9.04691 12.9748 9.94691 13.3123V10.9123C9.00941 11.0248 8.85941 11.6998 8.85941 12.0748ZM10.8844 14.5873V17.3248C11.6719 17.2123 12.0469 16.7623 12.0469 16.0123C12.0469 15.4498 11.8594 14.9623 10.8844 14.5873ZM10.8844 14.5873V17.3248C11.6719 17.2123 12.0469 16.7623 12.0469 16.0123C12.0469 15.4498 11.8594 14.9623 10.8844 14.5873ZM8.85941 12.0748C8.85941 12.5998 9.04691 12.9748 9.94691 13.3123V10.9123C9.00941 11.0248 8.85941 11.6998 8.85941 12.0748ZM8.85941 12.0748C8.85941 12.5998 9.04691 12.9748 9.94691 13.3123V10.9123C9.00941 11.0248 8.85941 11.6998 8.85941 12.0748ZM10.8844 14.5873V17.3248C11.6719 17.2123 12.0469 16.7623 12.0469 16.0123C12.0469 15.4498 11.8594 14.9623 10.8844 14.5873ZM10.8844 14.5873V17.3248C11.6719 17.2123 12.0469 16.7623 12.0469 16.0123C12.0469 15.4498 11.8594 14.9623 10.8844 14.5873ZM8.85941 12.0748C8.85941 12.5998 9.04691 12.9748 9.94691 13.3123V10.9123C9.00941 11.0248 8.85941 11.6998 8.85941 12.0748ZM8.85941 12.0748C8.85941 12.5998 9.04691 12.9748 9.94691 13.3123V10.9123C9.00941 11.0248 8.85941 11.6998 8.85941 12.0748ZM10.8844 14.5873V17.3248C11.6719 17.2123 12.0469 16.7623 12.0469 16.0123C12.0469 15.4498 11.8594 14.9623 10.8844 14.5873ZM10.8844 14.5873V17.3248C11.6719 17.2123 12.0469 16.7623 12.0469 16.0123C12.0469 15.4498 11.8594 14.9623 10.8844 14.5873ZM8.85941 12.0748C8.85941 12.5998 9.04691 12.9748 9.94691 13.3123V10.9123C9.00941 11.0248 8.85941 11.6998 8.85941 12.0748ZM13.9969 5.9248C13.9219 5.9623 13.8844 5.9623 13.8094 5.9623H7.02191C6.94691 5.9623 6.90941 5.9623 6.83441 5.9248C3.68441 7.76231 -0.0655921 11.3248 0.00940793 16.1998C0.159408 23.6998 8.78441 23.9998 10.3969 23.9998C12.0094 23.9998 20.6719 23.6998 20.7844 16.1998C20.8969 11.3248 17.1469 7.76231 13.9969 5.9248ZM12.4969 17.5498C12.1219 17.9248 11.5594 18.1498 10.8844 18.2248V18.8998C10.8844 19.1623 10.6594 19.3498 10.4344 19.3498C10.2094 19.3498 9.98441 19.1248 9.98441 18.8998V18.2623C8.85941 18.1498 8.03441 17.4373 7.77191 16.3873C7.73441 16.2373 7.77191 16.1248 7.84691 16.0123C7.92191 15.8998 8.07191 15.8248 8.22191 15.8248H8.25941C8.44691 15.8248 8.63441 15.9748 8.70941 16.1623C8.89691 16.7998 9.34691 17.2123 9.98441 17.3623V14.3623C8.67191 13.9873 7.88441 13.4248 7.88441 12.1873C7.88441 11.0248 8.70941 10.1998 9.98441 10.0498V9.6748C9.98441 9.4123 10.2094 9.22481 10.4344 9.22481C10.6594 9.22481 10.8844 9.37481 10.8844 9.59981V10.0123C12.2719 10.1998 12.7219 11.1373 12.8344 11.5873C12.8719 11.7373 12.8344 11.8873 12.7594 11.9998C12.6844 12.1123 12.5344 12.1873 12.3844 12.1873H12.3094C12.1219 12.1873 11.9344 12.0748 11.8594 11.8873C11.6719 11.3998 11.3719 11.0998 10.8469 10.9873V13.6123C12.3844 14.0998 13.0594 14.8123 13.0594 16.0123C13.0969 16.6123 12.8719 17.1748 12.4969 17.5498ZM10.8844 14.5873V17.3248C11.6719 17.2123 12.0469 16.7623 12.0469 16.0123C12.0469 15.4498 11.8594 14.9623 10.8844 14.5873ZM8.85941 12.0748C8.85941 12.5998 9.04691 12.9748 9.94691 13.3123V10.9123C9.00941 11.0248 8.85941 11.6998 8.85941 12.0748ZM8.85941 12.0748C8.85941 12.5998 9.04691 12.9748 9.94691 13.3123V10.9123C9.00941 11.0248 8.85941 11.6998 8.85941 12.0748ZM10.8844 14.5873V17.3248C11.6719 17.2123 12.0469 16.7623 12.0469 16.0123C12.0469 15.4498 11.8594 14.9623 10.8844 14.5873ZM10.8844 14.5873V17.3248C11.6719 17.2123 12.0469 16.7623 12.0469 16.0123C12.0469 15.4498 11.8594 14.9623 10.8844 14.5873ZM8.85941 12.0748C8.85941 12.5998 9.04691 12.9748 9.94691 13.3123V10.9123C9.00941 11.0248 8.85941 11.6998 8.85941 12.0748ZM8.85941 12.0748C8.85941 12.5998 9.04691 12.9748 9.94691 13.3123V10.9123C9.00941 11.0248 8.85941 11.6998 8.85941 12.0748ZM10.8844 14.5873V17.3248C11.6719 17.2123 12.0469 16.7623 12.0469 16.0123C12.0469 15.4498 11.8594 14.9623 10.8844 14.5873ZM10.8844 14.5873V17.3248C11.6719 17.2123 12.0469 16.7623 12.0469 16.0123C12.0469 15.4498 11.8594 14.9623 10.8844 14.5873ZM8.85941 12.0748C8.85941 12.5998 9.04691 12.9748 9.94691 13.3123V10.9123C9.00941 11.0248 8.85941 11.6998 8.85941 12.0748ZM8.85941 12.0748C8.85941 12.5998 9.04691 12.9748 9.94691 13.3123V10.9123C9.00941 11.0248 8.85941 11.6998 8.85941 12.0748ZM10.8844 14.5873V17.3248C11.6719 17.2123 12.0469 16.7623 12.0469 16.0123C12.0469 15.4498 11.8594 14.9623 10.8844 14.5873ZM10.8844 14.5873V17.3248C11.6719 17.2123 12.0469 16.7623 12.0469 16.0123C12.0469 15.4498 11.8594 14.9623 10.8844 14.5873ZM8.85941 12.0748C8.85941 12.5998 9.04691 12.9748 9.94691 13.3123V10.9123C9.00941 11.0248 8.85941 11.6998 8.85941 12.0748ZM8.85941 12.0748C8.85941 12.5998 9.04691 12.9748 9.94691 13.3123V10.9123C9.00941 11.0248 8.85941 11.6998 8.85941 12.0748ZM10.8844 14.5873V17.3248C11.6719 17.2123 12.0469 16.7623 12.0469 16.0123C12.0469 15.4498 11.8594 14.9623 10.8844 14.5873ZM10.8844 14.5873V17.3248C11.6719 17.2123 12.0469 16.7623 12.0469 16.0123C12.0469 15.4498 11.8594 14.9623 10.8844 14.5873ZM8.85941 12.0748C8.85941 12.5998 9.04691 12.9748 9.94691 13.3123V10.9123C9.00941 11.0248 8.85941 11.6998 8.85941 12.0748ZM8.85941 12.0748C8.85941 12.5998 9.04691 12.9748 9.94691 13.3123V10.9123C9.00941 11.0248 8.85941 11.6998 8.85941 12.0748ZM10.8844 14.5873V17.3248C11.6719 17.2123 12.0469 16.7623 12.0469 16.0123C12.0469 15.4498 11.8594 14.9623 10.8844 14.5873ZM10.8844 14.5873V17.3248C11.6719 17.2123 12.0469 16.7623 12.0469 16.0123C12.0469 15.4498 11.8594 14.9623 10.8844 14.5873ZM8.85941 12.0748C8.85941 12.5998 9.04691 12.9748 9.94691 13.3123V10.9123C9.00941 11.0248 8.85941 11.6998 8.85941 12.0748ZM8.85941 12.0748C8.85941 12.5998 9.04691 12.9748 9.94691 13.3123V10.9123C9.00941 11.0248 8.85941 11.6998 8.85941 12.0748ZM10.8844 14.5873V17.3248C11.6719 17.2123 12.0469 16.7623 12.0469 16.0123C12.0469 15.4498 11.8594 14.9623 10.8844 14.5873ZM10.8844 14.5873V17.3248C11.6719 17.2123 12.0469 16.7623 12.0469 16.0123C12.0469 15.4498 11.8594 14.9623 10.8844 14.5873ZM8.85941 12.0748C8.85941 12.5998 9.04691 12.9748 9.94691 13.3123V10.9123C9.00941 11.0248 8.85941 11.6998 8.85941 12.0748ZM8.85941 12.0748C8.85941 12.5998 9.04691 12.9748 9.94691 13.3123V10.9123C9.00941 11.0248 8.85941 11.6998 8.85941 12.0748ZM10.8844 14.5873V17.3248C11.6719 17.2123 12.0469 16.7623 12.0469 16.0123C12.0469 15.4498 11.8594 14.9623 10.8844 14.5873ZM10.8844 14.5873V17.3248C11.6719 17.2123 12.0469 16.7623 12.0469 16.0123C12.0469 15.4498 11.8594 14.9623 10.8844 14.5873ZM8.85941 12.0748C8.85941 12.5998 9.04691 12.9748 9.94691 13.3123V10.9123C9.00941 11.0248 8.85941 11.6998 8.85941 12.0748ZM10.8844 14.5873V17.3248C11.6719 17.2123 12.0469 16.7623 12.0469 16.0123C12.0469 15.4498 11.8594 14.9623 10.8844 14.5873ZM8.85941 12.0748C8.85941 12.5998 9.04691 12.9748 9.94691 13.3123V10.9123C9.00941 11.0248 8.85941 11.6998 8.85941 12.0748ZM10.8844 14.5873V17.3248C11.6719 17.2123 12.0469 16.7623 12.0469 16.0123C12.0469 15.4498 11.8594 14.9623 10.8844 14.5873ZM8.85941 12.0748C8.85941 12.5998 9.04691 12.9748 9.94691 13.3123V10.9123C9.00941 11.0248 8.85941 11.6998 8.85941 12.0748Z" fill="#28558D"/>
<path d="M12.947 4.5375L14.4095 1.7625C14.8595 0.975 14.2595 0 13.3595 0H10.397H7.43447C6.53447 0 5.93447 0.975 6.38447 1.7625L7.84697 4.5375H12.947Z" fill="#28558D"/>

</svg>
