<svg width="21" height="24" viewBox="0 0 21 24" fill="none" xmlns="http://www.w3.org/2000/svg">

<path d="M19.9196 0.768066H15.35V1.19047C15.35 1.92007 14.7356 2.53447 14.006 2.53447H6.78675C6.05715 2.53447 5.44275 1.92007 5.44275 1.19047V0.768066H0.911555C0.489155 0.768066 0.143555 1.11367 0.143555 1.53607V23.2321C0.143555 23.6545 0.489155 24.0001 0.911555 24.0001H19.9196C20.342 24.0001 20.6876 23.6545 20.6876 23.2321V1.53607C20.6876 1.11367 20.342 0.768066 19.9196 0.768066ZM17.6156 18.2401C17.6156 18.6625 17.27 19.0081 16.8476 19.0081H3.94515C3.52275 19.0081 3.17715 18.6625 3.17715 18.2401V17.5105C3.17715 17.0881 3.52275 16.7425 3.94515 16.7425H16.8476C17.27 16.7425 17.6156 17.0881 17.6156 17.5105V18.2401ZM17.6156 13.5553C17.6156 13.9777 17.27 14.3233 16.8476 14.3233H3.94515C3.52275 14.3233 3.17715 13.9777 3.17715 13.5553V12.8257C3.17715 12.4033 3.52275 12.0577 3.94515 12.0577H16.8476C17.27 12.0577 17.6156 12.4033 17.6156 12.8257V13.5553ZM17.6156 8.87047C17.6156 9.29287 17.27 9.63847 16.8476 9.63847H3.94515C3.52275 9.63847 3.17715 9.29287 3.17715 8.87047V8.14087C3.17715 7.71847 3.52275 7.37287 3.94515 7.37287H16.8476C17.27 7.37287 17.6156 7.71847 17.6156 8.14087V8.87047Z" fill="#28558D"/>
<path d="M6.78673 1.3824H14.0059C14.1211 1.3824 14.1979 1.3056 14.1979 1.1904V0.768V0.192C14.1979 0.0768 14.1211 0 14.0059 0H6.78673C6.67153 0 6.59473 0.0768 6.59473 0.192V0.768V1.1904C6.59473 1.3056 6.70993 1.3824 6.78673 1.3824Z" fill="#28558D"/>

</svg>
